# xmcd CD database file
#
# Track frame offsets:
#	150
#	26410
#	46743
#	62556
#	90021
#	114896
#	131614
#	158677
#	179585
#	205797
#
# Disc length: 2988 seconds
#
# Revision: 0
# Processed by: cddbd v1.5.1PL0 Copyright (c) Steve Scherf et al.
# Submitted via: CDex 1.51
#
DISCID=6f0baa0a
DTITLE=John Gaar Band - Bittersweet Success
DYEAR=2005
DGENRE=Blues
TTITLE0=Memphis
TTITLE1=That Aint True
TTITLE2=Bittersweet Success
TTITLE3=You Know Me
TTITLE4=Played The Fool
TTITLE5=Till I Get It Right
TTITLE6=Love Is Overdue
TTITLE7=Hard Rain
TTITLE8=Devil On Tequila
TTITLE9=Lay My Head
EXTD=YEAR: 2005
EXTT0=
EXTT1=
EXTT2=
EXTT3=
EXTT4=
EXTT5=
EXTT6=
EXTT7=
EXTT8=
EXTT9=
PLAYORDER=
